<svg width="141" height="19" viewBox="0 0 141 19" fill="none" xmlns="http://www.w3.org/2000/svg">
<path d="M1.69531 18C1.14844 18 0.875 17.707 0.875 17.1211V2.07422C0.875 1.48828 1.14844 1.19531 1.69531 1.19531H13.1328C13.6797 1.19531 13.9531 1.48828 13.9531 2.07422V17.1211C13.9531 17.707 13.6797 18 13.1328 18H11.3516C10.8047 18 10.5312 17.707 10.5312 17.1211V4.10156H4.29688V17.1211C4.29688 17.707 4.02344 18 3.47656 18H1.69531ZM18.5234 18C17.9766 18 17.7031 17.707 17.7031 17.1211V2.07422C17.7031 1.48828 17.9766 1.19531 18.5234 1.19531H22.9062C25.7188 1.19531 27.668 1.65234 28.7539 2.56641C29.8477 3.48047 30.3945 4.77734 30.3945 6.45703C30.3945 8.13672 29.8477 9.43359 28.7539 10.3477C27.668 11.2617 25.7188 11.7188 22.9062 11.7188H21.125V17.1211C21.125 17.707 20.8516 18 20.3047 18H18.5234ZM21.125 8.85938H22.8945C24.457 8.85938 25.5195 8.67578 26.082 8.30859C26.6445 7.93359 26.9258 7.31641 26.9258 6.45703C26.9258 5.59766 26.6445 4.98438 26.082 4.61719C25.5195 4.24219 24.457 4.05469 22.8945 4.05469H21.125V8.85938ZM32.3984 9.59766C32.3984 6.90234 33.0938 4.76172 34.4844 3.17578C35.875 1.58984 37.8594 0.796875 40.4375 0.796875C43.0156 0.796875 45 1.58984 46.3906 3.17578C47.7812 4.76172 48.4766 6.90234 48.4766 9.59766C48.4766 12.293 47.7812 14.4336 46.3906 16.0195C45 17.6055 43.0156 18.3984 40.4375 18.3984C37.8594 18.3984 35.875 17.6055 34.4844 16.0195C33.0938 14.4336 32.3984 12.293 32.3984 9.59766ZM36.0547 9.59766C36.0547 11.5508 36.4023 13.0469 37.0977 14.0859C37.8008 15.1172 38.9141 15.6328 40.4375 15.6328C41.9609 15.6328 43.0703 15.1172 43.7656 14.0859C44.4688 13.0469 44.8203 11.5508 44.8203 9.59766C44.8203 7.64453 44.4688 6.15234 43.7656 5.12109C43.0703 4.08203 41.9609 3.5625 40.4375 3.5625C38.9141 3.5625 37.8008 4.08203 37.0977 5.12109C36.4023 6.15234 36.0547 7.64453 36.0547 9.59766Z" fill="black"/>
<path d="M51.6055 4.66406C51.4023 4.28125 51.5391 3.98438 52.0156 3.77344C52.4688 3.57031 52.9414 3.28516 53.4336 2.91797C53.9258 2.55078 54.3281 2.17188 54.6406 1.78125C54.9922 1.34375 55.3281 1.125 55.6484 1.125H57.5117C57.9805 1.125 58.2148 1.35938 58.2148 1.82812V17.2969C58.2148 17.7656 57.9805 18 57.5117 18H55.6367C55.168 18 54.9336 17.7656 54.9336 17.2969V6.15234C54.9336 5.83984 54.9492 5.52734 54.9805 5.21484H54.9336C54.6914 5.51953 54.4258 5.78125 54.1367 6C53.8477 6.21875 53.5547 6.39062 53.2578 6.51562C52.8906 6.67188 52.6133 6.57031 52.4258 6.21094L51.6055 4.66406ZM61.1562 9.66797C61.1562 6.50391 61.6484 4.25781 62.6328 2.92969C63.6172 1.60156 65.125 0.9375 67.1562 0.9375C69.1875 0.9375 70.6953 1.60156 71.6797 2.92969C72.6641 4.25781 73.1562 6.50391 73.1562 9.66797C73.1562 12.832 72.6641 15.0781 71.6797 16.4062C70.6953 17.7344 69.1875 18.3984 67.1562 18.3984C65.125 18.3984 63.6172 17.7344 62.6328 16.4062C61.6484 15.0781 61.1562 12.832 61.1562 9.66797ZM64.625 9.66797C64.625 11.1133 64.7422 12.5039 64.9766 13.8398C65.2188 15.1758 65.9453 15.8438 67.1562 15.8438C68.3672 15.8438 69.0898 15.1758 69.3242 13.8398C69.5664 12.5039 69.6875 11.1133 69.6875 9.66797C69.6875 8.22266 69.5664 6.83203 69.3242 5.49609C69.0898 4.16016 68.3672 3.49219 67.1562 3.49219C65.9453 3.49219 65.2188 4.16016 64.9766 5.49609C64.7422 6.83203 64.625 8.22266 64.625 9.66797ZM75.2188 9.66797C75.2188 6.50391 75.7109 4.25781 76.6953 2.92969C77.6797 1.60156 79.1875 0.9375 81.2188 0.9375C83.25 0.9375 84.7578 1.60156 85.7422 2.92969C86.7266 4.25781 87.2188 6.50391 87.2188 9.66797C87.2188 12.832 86.7266 15.0781 85.7422 16.4062C84.7578 17.7344 83.25 18.3984 81.2188 18.3984C79.1875 18.3984 77.6797 17.7344 76.6953 16.4062C75.7109 15.0781 75.2188 12.832 75.2188 9.66797ZM78.6875 9.66797C78.6875 11.1133 78.8047 12.5039 79.0391 13.8398C79.2812 15.1758 80.0078 15.8438 81.2188 15.8438C82.4297 15.8438 83.1523 15.1758 83.3867 13.8398C83.6289 12.5039 83.75 11.1133 83.75 9.66797C83.75 8.22266 83.6289 6.83203 83.3867 5.49609C83.1523 4.16016 82.4297 3.49219 81.2188 3.49219C80.0078 3.49219 79.2812 4.16016 79.0391 5.49609C78.8047 6.83203 78.6875 8.22266 78.6875 9.66797Z" fill="#AF0000"/>
<path d="M90.9453 18C90.3984 18 90.125 17.707 90.125 17.1211V2.07422C90.125 1.48828 90.3984 1.19531 90.9453 1.19531H100.895C101.48 1.19531 101.773 1.44922 101.773 1.95703V3.33984C101.773 3.84766 101.48 4.10156 100.895 4.10156H93.5469V7.73438H95.4805C98.3711 7.73438 100.379 8.19922 101.504 9.12891C102.629 10.0586 103.191 11.3047 103.191 12.8672C103.191 14.4297 102.629 15.6758 101.504 16.6055C100.379 17.5352 98.3711 18 95.4805 18H90.9453ZM93.5469 15.1406H95.1406C96.7812 15.1406 97.9219 14.9961 98.5625 14.707C99.2109 14.418 99.5352 13.8047 99.5352 12.8672C99.5352 11.9297 99.2109 11.3164 98.5625 11.0273C97.9219 10.7383 96.7812 10.5938 95.1406 10.5938H93.5469V15.1406ZM121.742 18C121.195 18 120.922 17.707 120.922 17.1211V2.07422C120.922 1.48828 121.195 1.19531 121.742 1.19531H123.523C124.07 1.19531 124.344 1.48828 124.344 2.07422V17.1211C124.344 17.707 124.07 18 123.523 18H121.742ZM107 18C106.453 18 106.18 17.707 106.18 17.1211V2.07422C106.18 1.48828 106.453 1.19531 107 1.19531H108.781C109.328 1.19531 109.602 1.48828 109.602 2.07422V7.80469H111.418C114.309 7.80469 116.316 8.26562 117.441 9.1875C118.566 10.1016 119.129 11.3398 119.129 12.9023C119.129 14.4648 118.566 15.707 117.441 16.6289C116.316 17.543 114.309 18 111.418 18H107ZM109.602 15.1406H111.078C112.719 15.1406 113.859 15.0039 114.5 14.7305C115.148 14.4492 115.473 13.8398 115.473 12.9023C115.473 11.9648 115.148 11.3594 114.5 11.0859C113.859 10.8047 112.719 10.6641 111.078 10.6641H109.602V15.1406ZM127.496 4.19531C126.91 4.19531 126.617 3.94141 126.617 3.43359V1.95703C126.617 1.44922 126.91 1.19531 127.496 1.19531H139.543C140.129 1.19531 140.422 1.44922 140.422 1.95703V3.43359C140.422 3.94141 140.129 4.19531 139.543 4.19531H135.23V17.3555C135.23 17.7852 135.035 18 134.645 18H132.395C132.004 18 131.809 17.7852 131.809 17.3555V4.19531H127.496Z" fill="#1C8600"/>
</svg>
