<svg width="42" height="17" viewBox="0 0 42 17" fill="none" xmlns="http://www.w3.org/2000/svg">
<path d="M1.69531 17C1.14844 17 0.875 16.707 0.875 16.1211V1.07422C0.875 0.488281 1.14844 0.195312 1.69531 0.195312H13.1328C13.6797 0.195312 13.9531 0.488281 13.9531 1.07422V16.1211C13.9531 16.707 13.6797 17 13.1328 17H11.3516C10.8047 17 10.5312 16.707 10.5312 16.1211V3.10156H4.29688V16.1211C4.29688 16.707 4.02344 17 3.47656 17H1.69531Z" fill="black"/>
<path d="M17.9492 3.66406C17.7461 3.28125 17.8828 2.98438 18.3594 2.77344C18.8125 2.57031 19.2852 2.28516 19.7773 1.91797C20.2695 1.55078 20.6719 1.17188 20.9844 0.78125C21.3359 0.34375 21.6719 0.125 21.9922 0.125H23.8555C24.3242 0.125 24.5586 0.359375 24.5586 0.828125V16.2969C24.5586 16.7656 24.3242 17 23.8555 17H21.9805C21.5117 17 21.2773 16.7656 21.2773 16.2969V5.15234C21.2773 4.83984 21.293 4.52734 21.3242 4.21484H21.2773C21.0352 4.51953 20.7695 4.78125 20.4805 5C20.1914 5.21875 19.8984 5.39062 19.6016 5.51562C19.2344 5.67188 18.957 5.57031 18.7695 5.21094L17.9492 3.66406Z" fill="#AF0000"/>
<path d="M29.1641 17C28.6172 17 28.3438 16.707 28.3438 16.1211V1.07422C28.3438 0.488281 28.6172 0.195312 29.1641 0.195312H39.1133C39.6992 0.195312 39.9922 0.449219 39.9922 0.957031V2.33984C39.9922 2.84766 39.6992 3.10156 39.1133 3.10156H31.7656V6.73438H33.6992C36.5898 6.73438 38.5977 7.19922 39.7227 8.12891C40.8477 9.05859 41.4102 10.3047 41.4102 11.8672C41.4102 13.4297 40.8477 14.6758 39.7227 15.6055C38.5977 16.5352 36.5898 17 33.6992 17H29.1641ZM31.7656 14.1406H33.3594C35 14.1406 36.1406 13.9961 36.7812 13.707C37.4297 13.418 37.7539 12.8047 37.7539 11.8672C37.7539 10.9297 37.4297 10.3164 36.7812 10.0273C36.1406 9.73828 35 9.59375 33.3594 9.59375H31.7656V14.1406Z" fill="#1C8600"/>
</svg>
